<?xml version="1.0" encoding="UTF-8" standalone="no"?><!DOCTYPE svg PUBLIC "-//W3C//DTD SVG 1.1//EN" "http://www.w3.org/Graphics/SVG/1.1/DTD/svg11.dtd"><svg width="100%" height="100%" viewBox="0 0 213 209" version="1.1" xmlns="http://www.w3.org/2000/svg" xmlns:xlink="http://www.w3.org/1999/xlink" xml:space="preserve" xmlns:serif="http://www.serif.com/" style="fill-rule:evenodd;clip-rule:evenodd;stroke-linejoin:round;stroke-miterlimit:2;"><rect id="check" x="4.069" y="0" width="208.333" height="208.333" style="fill:none;"/><g><path d="M95.341,117.433l-19.159,-19.159c-3.252,-3.252 -8.533,-3.252 -11.785,0c-3.252,3.252 -3.252,8.533 -0,11.785l25,25l0.1,0.099l0.078,0.074l0.078,0.073l0.079,0.072l0.079,0.07l0.081,0.069l0.08,0.068l0.082,0.067l0.082,0.066l0.083,0.064l0.083,0.063l0.084,0.062l0.085,0.061l0.085,0.06l0.086,0.058l0.087,0.058l0.086,0.056l0.088,0.055l0.088,0.054l0.089,0.052l0.089,0.052l0.089,0.05l0.09,0.049l0.091,0.048l0.091,0.046l0.091,0.046l0.116,0.056l0.135,0.062l0.119,0.052l0.111,0.047l0.093,0.037l0.093,0.037l0.093,0.035l0.094,0.034l0.094,0.033l0.095,0.032l0.095,0.031l0.096,0.03l0.096,0.028l0.096,0.028l0.097,0.026l0.098,0.025l0.097,0.024l0.098,0.023l0.099,0.022l0.099,0.02l0.099,0.02l0.1,0.018l0.1,0.017l0.1,0.016l0.1,0.014l0.101,0.014l0.101,0.012l0.101,0.011l0.153,0.014l0.126,0.01l0.128,0.007l0.172,0.008l0.1,0.003l0.1,0.001l0.1,0l0.1,-0.001l0.1,-0.002l0.1,-0.003l0.099,-0.004l0.1,-0.006l0.1,-0.007l0.1,-0.008l0.1,-0.009l0.099,-0.011l0.1,-0.011l0.099,-0.013l0.099,-0.014l0.099,-0.015l0.099,-0.017l0.099,-0.017l0.099,-0.019l0.098,-0.02l0.098,-0.021l0.098,-0.023l0.098,-0.023l0.097,-0.025l0.098,-0.026l0.097,-0.027l0.096,-0.028l0.097,-0.03l0.096,-0.031l0.096,-0.031l0.096,-0.034l0.095,-0.034l0.095,-0.035l0.094,-0.037l0.095,-0.038l0.093,-0.039l0.094,-0.04l0.093,-0.042l0.093,-0.042l0.092,-0.044l0.092,-0.045l0.091,-0.046l0.091,-0.048l0.09,-0.048l0.09,-0.05l0.09,-0.051l0.089,-0.053l0.11,-0.067l0.128,-0.08l0.112,-0.073l0.103,-0.07l0.084,-0.059l0.085,-0.06l0.084,-0.061l0.083,-0.063l0.083,-0.065l0.083,-0.066l0.083,-0.067l0.082,-0.068l0.082,-0.071l0.119,-0.105l0.103,-0.095l0.078,-0.074l0.078,-0.075l50.892,-50c3.281,-3.223 3.328,-8.504 0.105,-11.785c-3.224,-3.28 -8.504,-3.327 -11.785,-0.104l-45.001,44.211Z"/></g></svg>