<?xml version="1.0" encoding="UTF-8" standalone="no"?><!DOCTYPE svg PUBLIC "-//W3C//DTD SVG 1.1//EN" "http://www.w3.org/Graphics/SVG/1.1/DTD/svg11.dtd"><svg width="100%" height="100%" viewBox="0 0 209 209" version="1.1" xmlns="http://www.w3.org/2000/svg" xmlns:xlink="http://www.w3.org/1999/xlink" xml:space="preserve" xmlns:serif="http://www.serif.com/" style="fill-rule:evenodd;clip-rule:evenodd;stroke-linejoin:round;stroke-miterlimit:2;"><rect id="flecha" x="0" y="-0" width="208.333" height="208.333" style="fill:none;"/><path d="M129.882,95.833l-71.549,0c-4.599,0 -8.333,3.734 -8.333,8.334c0,4.599 3.734,8.333 8.333,8.333l71.549,-0l-18.184,18.183c-3.252,3.252 -3.252,8.533 0,11.785c3.253,3.252 8.533,3.252 11.785,0l32.41,-32.409c0.795,-0.795 1.396,-1.712 1.802,-2.691l0.01,-0.024c0.405,-0.979 0.628,-2.052 0.628,-3.177c0,-1.125 -0.223,-2.199 -0.628,-3.178l-0.01,-0.024c-0.263,-0.635 -0.609,-1.243 -1.036,-1.81l-0.07,-0.092l-0.092,-0.115l-0.1,-0.123l-0.103,-0.121l-0.106,-0.119l-0.109,-0.118l-0.111,-0.116l-0.075,-0.077c-0,0 -32.41,-32.409 -32.41,-32.409c-3.252,-3.252 -8.532,-3.252 -11.785,0c-3.252,3.252 -3.252,8.533 0,11.785l18.184,18.183Z"/></svg>