<?xml version="1.0" encoding="UTF-8" standalone="no"?><!DOCTYPE svg PUBLIC "-//W3C//DTD SVG 1.1//EN" "http://www.w3.org/Graphics/SVG/1.1/DTD/svg11.dtd"><svg width="100%" height="100%" viewBox="0 0 209 209" version="1.1" xmlns="http://www.w3.org/2000/svg" xmlns:xlink="http://www.w3.org/1999/xlink" xml:space="preserve" xmlns:serif="http://www.serif.com/" style="fill-rule:evenodd;clip-rule:evenodd;stroke-linejoin:round;stroke-miterlimit:2;"><rect id="ojo" x="0" y="0" width="208.333" height="208.333" style="fill:none;"/><path d="M136.839,83.387c-8.665,-8.665 -20.418,-13.533 -32.672,-13.533c-12.255,-0 -24.008,4.868 -32.673,13.533c-8.097,8.098 -14.887,14.887 -14.887,14.887c-3.254,3.254 -3.254,8.531 0,11.785c0,0 6.79,6.79 14.887,14.887c8.665,8.665 20.418,13.533 32.673,13.533c12.254,0 24.007,-4.868 32.672,-13.533c8.098,-8.097 14.887,-14.887 14.887,-14.887c3.254,-3.254 3.254,-8.531 -0,-11.785c-0,0 -6.789,-6.789 -14.887,-14.887Zm-49.34,8.285c-2.616,3.483 -4.166,7.809 -4.166,12.495c0,4.685 1.55,9.012 4.166,12.494c-1.501,-1.026 -2.915,-2.196 -4.22,-3.5c0,-0 -8.994,-8.994 -8.994,-8.994c0,-0 8.994,-8.995 8.994,-8.995c1.305,-1.304 2.719,-2.474 4.22,-3.5Zm33.335,-0c1.501,1.026 2.915,2.196 4.22,3.5l8.994,8.995c0,-0 -8.994,8.994 -8.994,8.994c-1.305,1.304 -2.719,2.474 -4.22,3.5c2.616,-3.482 4.166,-7.809 4.166,-12.494c0,-4.686 -1.55,-9.012 -4.166,-12.495Z"/></svg>