<?xml version="1.0" encoding="UTF-8" standalone="no"?><!DOCTYPE svg PUBLIC "-//W3C//DTD SVG 1.1//EN" "http://www.w3.org/Graphics/SVG/1.1/DTD/svg11.dtd"><svg width="100%" height="100%" viewBox="0 0 209 209" version="1.1" xmlns="http://www.w3.org/2000/svg" xmlns:xlink="http://www.w3.org/1999/xlink" xml:space="preserve" xmlns:serif="http://www.serif.com/" style="fill-rule:evenodd;clip-rule:evenodd;stroke-linejoin:round;stroke-miterlimit:2;"><rect id="play" x="0" y="0" width="208.333" height="208.333" style="fill:none;"/><path d="M67.991,54.167c-1.483,0.016 -2.874,0.42 -4.075,1.116c-1.203,0.692 -2.249,1.695 -3.004,2.971c-0.383,0.646 -0.682,1.347 -0.881,2.089c-0.193,0.722 -0.286,1.459 -0.282,2.19l-0,83.268c-0.004,0.731 0.089,1.467 0.282,2.19c0.199,0.741 0.497,1.443 0.881,2.088c0.755,1.276 1.8,2.279 3.004,2.971c1.201,0.696 2.591,1.1 4.075,1.116c0.75,0.009 1.507,-0.083 2.249,-0.282c0.722,-0.193 1.406,-0.481 2.037,-0.85l72.113,-41.634c0.635,-0.363 1.226,-0.811 1.755,-1.34c0.543,-0.542 1.001,-1.152 1.368,-1.806c0.728,-1.292 1.073,-2.699 1.071,-4.087c0.002,-1.388 -0.343,-2.795 -1.071,-4.087c-0.367,-0.655 -0.825,-1.264 -1.368,-1.807c-0.529,-0.529 -1.121,-0.977 -1.755,-1.339l-72.113,-41.635c-0.631,-0.368 -1.315,-0.657 -2.037,-0.85c-0.742,-0.199 -1.499,-0.291 -2.249,-0.282Zm8.425,77.233l47.168,-27.233l-47.168,-27.233l-0,54.466Z"/></svg>