<?xml version="1.0" encoding="UTF-8" standalone="no"?><!DOCTYPE svg PUBLIC "-//W3C//DTD SVG 1.1//EN" "http://www.w3.org/Graphics/SVG/1.1/DTD/svg11.dtd"><svg width="100%" height="100%" viewBox="0 0 209 209" version="1.1" xmlns="http://www.w3.org/2000/svg" xmlns:xlink="http://www.w3.org/1999/xlink" xml:space="preserve" xmlns:serif="http://www.serif.com/" style="fill-rule:evenodd;clip-rule:evenodd;stroke-linejoin:round;stroke-miterlimit:2;"><rect id="triangulo" x="-0" y="0" width="208.333" height="208.333" style="fill:none;"/><g><path d="M143.859,146.875c2.978,0 5.729,-1.588 7.217,-4.167c1.489,-2.578 1.489,-5.755 0,-8.333l-39.692,-68.75c-1.489,-2.578 -4.24,-4.167 -7.217,-4.167c-2.978,0 -5.729,1.589 -7.217,4.167l-39.693,68.75c-1.489,2.578 -1.489,5.755 -0,8.333c1.489,2.579 4.24,4.167 7.217,4.167l79.385,0Zm-14.433,-16.667l-50.518,0c-0,0 25.259,-43.75 25.259,-43.75c-0,0 25.259,43.75 25.259,43.75Z"/></g></svg>