<?xml version="1.0" encoding="UTF-8" standalone="no"?><!DOCTYPE svg PUBLIC "-//W3C//DTD SVG 1.1//EN" "http://www.w3.org/Graphics/SVG/1.1/DTD/svg11.dtd"><svg width="100%" height="100%" viewBox="0 0 1563 1559" version="1.1" xmlns="http://www.w3.org/2000/svg" xmlns:xlink="http://www.w3.org/1999/xlink" xml:space="preserve" xmlns:serif="http://www.serif.com/" style="fill-rule:evenodd;clip-rule:evenodd;stroke-linejoin:round;stroke-miterlimit:2;"><rect id="icono" x="1.26" y="0" width="1558.33" height="1558.33" style="fill:none;"/><clipPath id="_clip1"><rect x="1.26" y="0" width="1558.33" height="1558.33"/></clipPath><g clip-path="url(#_clip1)"><path d="M1219.87,203.955c33.349,-71.666 2.284,-157.017 -69.329,-190.48l0,-0.001c-71.612,-33.463 -156.828,-2.447 -190.176,69.219l-591.764,1271.69c-33.349,71.665 -2.284,157.017 69.329,190.48l-0,-0c71.612,33.463 156.828,2.447 190.177,-69.219l591.763,-1271.68Zm-295.239,1181.38c35.806,16.732 51.32,59.446 34.624,95.327c-16.697,35.881 -59.323,51.428 -95.129,34.697c-35.806,-16.732 -51.321,-59.446 -34.624,-95.327c16.697,-35.881 59.322,-51.428 95.129,-34.697Zm299.053,-1038.7c3.705,-7.963 0.254,-17.446 -7.703,-21.164l-0,-0c-7.957,-3.718 -17.426,-0.272 -21.131,7.691l-531.115,1141.35c-3.705,7.963 -0.253,17.446 7.704,21.164l-0,0c7.957,3.718 17.425,0.272 21.13,-7.691l531.115,-1141.35Zm118.809,310.464c16.674,-35.833 1.142,-78.509 -34.664,-95.24c-35.807,-16.732 -78.414,-1.224 -95.089,34.609l-302.605,650.291c-16.674,35.833 -1.142,78.508 34.664,95.24c35.807,16.731 78.414,1.224 95.089,-34.609l302.605,-650.291Zm-77.794,280.337c1.853,-3.982 0.127,-8.723 -3.851,-10.582c-3.979,-1.859 -8.713,-0.136 -10.566,3.845l-174.8,375.643c-1.853,3.981 -0.127,8.723 3.851,10.582c3.979,1.859 8.713,0.136 10.566,-3.846l174.8,-375.642Zm-713.13,-315.713c12.969,-27.87 0.888,-61.063 -26.961,-74.076c-27.849,-13.013 -60.988,-0.952 -73.957,26.918l-195.023,419.1c-12.969,27.87 -0.889,61.062 26.961,74.076c27.849,13.013 60.988,0.951 73.957,-26.919l195.023,-419.099Zm-210.452,112.789c1.852,-3.982 0.127,-8.724 -3.852,-10.583c-3.978,-1.859 -8.713,-0.136 -10.565,3.846l-114.296,245.618c-1.853,3.982 -0.127,8.724 3.852,10.583c3.978,1.859 8.712,0.136 10.565,-3.846l114.296,-245.618Zm250.717,-331.335c27.849,13.013 39.916,46.236 26.93,74.143c-12.987,27.907 -46.14,40 -73.989,26.986c-27.85,-13.013 -39.916,-46.236 -26.93,-74.143c12.986,-27.908 46.14,-40 73.989,-26.986Z" style="fill:url(#_Linear2);"/></g><defs><linearGradient id="_Linear2" x1="0" y1="0" x2="1" y2="0" gradientUnits="userSpaceOnUse" gradientTransform="matrix(-601.552,1284.67,-1284.67,-601.552,1093.6,134.55)"><stop offset="0" style="stop-color:#5202c4;stop-opacity:1"/><stop offset="1" style="stop-color:#fc6f06;stop-opacity:1"/></linearGradient></defs></svg>