<?xml version="1.0" encoding="UTF-8" standalone="no"?><!DOCTYPE svg PUBLIC "-//W3C//DTD SVG 1.1//EN" "http://www.w3.org/Graphics/SVG/1.1/DTD/svg11.dtd"><svg width="100%" height="100%" viewBox="0 0 2750 1567" version="1.1" xmlns="http://www.w3.org/2000/svg" xmlns:xlink="http://www.w3.org/1999/xlink" xml:space="preserve" xmlns:serif="http://www.serif.com/" style="fill-rule:evenodd;clip-rule:evenodd;stroke-linejoin:round;stroke-miterlimit:2;"><rect id="logogo" x="0" y="1.806" width="2749.35" height="1563.06" style="fill:none;"/><path d="M1008.21,208.121c33.349,-71.665 2.284,-157.017 -69.329,-190.48l0,0c-71.612,-33.463 -156.827,-2.447 -190.176,69.219l-591.764,1271.68c-33.349,71.666 -2.284,157.017 69.329,190.48l-0,0.001c71.612,33.463 156.828,2.447 190.177,-69.219l591.763,-1271.69Zm-295.239,1181.38c35.806,16.732 51.32,59.446 34.624,95.327c-16.697,35.881 -59.323,51.428 -95.129,34.696c-35.806,-16.731 -51.321,-59.446 -34.624,-95.327c16.697,-35.881 59.323,-51.427 95.129,-34.696Zm299.053,-1038.7c3.705,-7.963 0.254,-17.446 -7.703,-21.165l-0,0c-7.957,-3.718 -17.425,-0.271 -21.131,7.691l-531.115,1141.35c-3.705,7.962 -0.253,17.446 7.704,21.164l-0,0c7.957,3.718 17.425,0.272 21.13,-7.691l531.115,-1141.35Zm118.809,310.463c16.674,-35.833 1.142,-78.508 -34.664,-95.24c-35.807,-16.731 -78.414,-1.223 -95.089,34.609l-302.605,650.292c-16.674,35.832 -1.142,78.508 34.665,95.24c35.806,16.731 78.413,1.223 95.088,-34.61l302.605,-650.291Zm-77.794,280.337c1.853,-3.981 0.127,-8.723 -3.851,-10.582c-3.979,-1.859 -8.713,-0.136 -10.565,3.846l-174.801,375.642c-1.853,3.982 -0.127,8.723 3.851,10.582c3.979,1.86 8.713,0.136 10.566,-3.845l174.8,-375.643Zm-713.13,-315.713c12.969,-27.87 0.889,-61.062 -26.961,-74.075c-27.849,-13.014 -60.988,-0.952 -73.957,26.918l-195.023,419.1c-12.969,27.87 -0.888,61.062 26.961,74.075c27.849,13.014 60.988,0.952 73.957,-26.918l195.023,-419.1Zm-210.452,112.789c1.853,-3.981 0.127,-8.723 -3.852,-10.582c-3.978,-1.859 -8.712,-0.136 -10.565,3.846l-114.296,245.618c-1.852,3.981 -0.127,8.723 3.852,10.582c3.978,1.859 8.712,0.136 10.565,-3.845l114.296,-245.619Zm250.717,-331.335c27.85,13.014 39.916,46.236 26.93,74.144c-12.986,27.907 -46.14,39.999 -73.989,26.986c-27.849,-13.014 -39.916,-46.236 -26.93,-74.144c12.987,-27.907 46.14,-39.999 73.989,-26.986Z" style="fill:url(#_Linear1);"/><g id="Capa-1" serif:id="Capa 1"><g><path d="M1649.27,305.981c-143.072,0 -209.928,93.599 -209.928,235.334l-0,484.037c-0,141.735 66.856,235.333 209.928,235.333c144.409,0 211.265,-93.598 211.265,-235.333l-0,-275.447l-195.22,0l0,93.599l96.273,-0l-0,187.197c-0,84.238 -33.428,135.049 -109.644,135.049c-74.879,-0 -109.644,-50.811 -109.644,-135.049l0,-494.735c0,-84.239 34.765,-135.049 109.644,-135.049c76.216,-0 109.644,50.81 109.644,135.049l-0,85.576l98.947,-0l-0,-80.227c-0,-141.735 -66.856,-235.334 -211.265,-235.334Z" style="fill:#402673;fill-rule:nonzero;"/><path d="M2018.32,541.315l-0,484.037c-0,141.735 70.867,235.333 213.939,235.333c144.409,0 215.277,-93.598 215.277,-235.333l-0,-484.037c-0,-143.072 -70.868,-235.334 -215.277,-235.334c-143.072,0 -213.939,92.262 -213.939,235.334Zm102.958,489.386l0,-494.735c0,-84.239 36.102,-135.049 110.981,-135.049c76.216,-0 110.981,50.81 110.981,135.049l0,494.735c0,85.575 -34.765,135.049 -110.981,135.049c-74.879,-0 -110.981,-49.474 -110.981,-135.049Z" style="fill:#402673;fill-rule:nonzero;"/></g></g><defs><linearGradient id="_Linear1" x1="0" y1="0" x2="1" y2="0" gradientUnits="userSpaceOnUse" gradientTransform="matrix(-601.552,1284.67,-1284.67,-601.552,881.942,138.717)"><stop offset="0" style="stop-color:#5202c4;stop-opacity:1"/><stop offset="1" style="stop-color:#fc6f06;stop-opacity:1"/></linearGradient></defs></svg>