<?xml version="1.0" encoding="utf-8"?>
<!-- Generator: Adobe Illustrator 22.0.1, SVG Export Plug-In . SVG Version: 6.00 Build 0)  -->
<svg version="1.1" id="Capa_1" xmlns="http://www.w3.org/2000/svg" x="0px" y="0px"
	viewBox="0 0 693.4 274.4" style="enable-background:new 0 0 693.4 274.4;" xml:space="preserve">
<style type="text/css">
	.st0{fill:#FFFFFF;}
	.st1{fill:#2CBBE8;}
</style>
<g>
	<path class="st0" d="M435.4,219.2c0,9.2-0.1,17.7,0,26.1c0.3,23.5-18.2,30.9-37,28.6c-1.9-0.2-3.6-3.3-5-5.4
		c-0.6-0.9-0.1-2.6-0.1-3.9c0-60.6,0-121.3,0-181.9c0-8,1.7-9.7,9.6-9.7c20.7,0,41.3-0.2,62,0.1c19.6,0.3,37.7,5.5,51.9,19.7
		c22,22,25.6,48.7,16.7,77.2c-8.7,27.8-28.8,43.5-57.5,48.2c-4.9,0.8-9.9,0.9-14.9,1C452.7,219.3,444.4,219.2,435.4,219.2z
		 M435.6,179.2c11.4,0,22.5,0.8,33.5-0.2c11.8-1.1,19.1-9,22.4-20c1.5-4.9,2.2-10.1,2.1-15.2c-0.2-15.2-6.3-25.1-17.9-28.8
		c-13.1-4.2-26.6-1.5-40.1-2.1C435.6,135.5,435.6,157.4,435.6,179.2z"/>
	<path class="st0" d="M193.2,82c9-3.3,17.3-7.9,26-9.3c16.1-2.5,32,0,46.1,8.9c13.4,8.4,19.4,21.6,21.9,36.5
		c1.3,7.5,1.9,15.2,2,22.8c0.2,23.3,0.1,46.7,0.1,70c0,6.4-1.9,8.3-8.3,8.3c-8.5,0-17,0-25.5,0c-6.5,0-8.4-1.9-8.4-8.2
		c0-21.8,0-43.7,0-65.5c0-3.8-0.2-7.7-0.9-11.4c-2.6-14.1-10.4-20.9-24.1-21.3c-14.3-0.4-24.6,7-27.7,20.2c-1,4.3-1.2,8.9-1.3,13.4
		c-0.1,21.3,0,42.7-0.1,64c0,7.1-1.8,8.8-8.8,8.8c-8.7,0-17.3,0-26,0c-5.1,0-7.3-2.1-7.3-7.2c0-66.3,0-132.7,0-199
		c0-4.8,2.2-6.9,6.9-7c2.5,0,5-0.1,7.5,0.2c18.7,1.9,27.6,11.8,27.7,30.6C193.2,52,193.2,67.3,193.2,82z"/>
	<path class="st0" d="M43.2,118.9c11.8-13.5,23.8-27,35.5-40.6c3.2-3.7,6.8-5.5,11.7-5.4c11.2,0.2,22.3,0.3,33.5,0
		c4.9-0.2,8.3,1.4,10.9,6.1c-21.6,20.8-43.2,41.7-65.4,63.1c23.6,23.9,47.1,47.6,70.5,71.3c-2.4,4.5-5.6,6.1-10.3,6
		c-11.3-0.3-22.7-0.3-34,0c-5.2,0.1-8.8-1.8-12-5.7c-12.5-14.7-25.2-29.3-37.8-44c-0.8-1-1.6-2-2.4-3c-0.4,0.1-0.9,0.2-1.3,0.4
		c0,1.7,0,3.4,0,5.1c0,13,0,26,0,39c0,6.1-2,8.1-8,8.1c-9,0-18,0-27,0c-4.7,0-6.9-2.2-6.9-7C0,145.8,0,79.3,0,12.8
		c0-4.5,2-7,6.6-6.8c4.6,0.2,9.4,0.2,13.9,1.1C33,9.6,40.3,18,41.7,30.9c0.3,2.5,0.3,5,0.3,7.5c0,25,0,50,0,75c0,1.8,0,3.6,0,5.3
		C42.4,118.7,42.8,118.8,43.2,118.9z"/>
	<path class="st0" d="M651.1,118c0-12.2,0-24.3,0-36.5c0-6.3,2.1-8.5,8.2-8.5c8.7,0,17.3,0,26,0c5.5,0,7.9,2.3,7.9,7.8
		c0,24.3,0.3,48.7-0.1,73c-0.5,40-26.8,66-66.9,66.6c-11.7,0.2-22.9-1.5-33.5-6.4c-21.3-10-33.8-27.3-35.3-50.2
		c-1.9-28-1-56.3-1.2-84.4c0-3.8,2.5-6.2,6.3-6.3c9.8-0.2,19.7-0.3,29.5,0c4.7,0.1,6.3,3.4,6.3,7.9c-0.1,23.2-0.1,46.3,0,69.5
		c0,3,0.1,6,0.7,8.9c2.8,14.3,13.7,22.5,28,21.2c14.8-1.3,23.5-10.6,24-25.6c0-0.5,0-1,0-1.5C651.1,141.7,651.1,129.9,651.1,118
		C651.1,118,651.1,118,651.1,118z"/>
	<path class="st0" d="M321,146c0-21.5,0-43,0-64.5c0-6.7,1.8-8.5,8.6-8.5c8.5,0,17,0,25.5,0c5.5,0,7.8,2.3,7.9,7.9
		c0,43.5,0,87,0,130.5c0,5.8-2.1,7.8-7.8,7.9c-9,0-18,0-27,0c-5.1,0-7.2-2.1-7.2-7.3C321,190,321,168,321,146z"/>
	<path class="st1" d="M315,27.2C314.9,12.1,326.7,0.1,341.7,0c15-0.1,27.2,11.8,27.3,26.7c0.2,14.7-12.1,27.2-26.9,27.3
		C327.2,54.1,315.1,42.2,315,27.2z"/>
</g>
</svg>
