<svg xmlns="http://www.w3.org/2000/svg" viewBox="0 0 95.5 24.88"><defs><style>.cls-1{fill:#22256f;}.cls-2{fill:#008ee0;}.cls-3{fill:#fff;}</style></defs><title>MercadoPago</title><g id="Capa_2"><g id="Capa_1-2" ><path class="cls-1" d="M35,11.44C35,5.14,27.14,0,17.49,0S0,5.14,0,11.44v.67c0,6.68,6.84,12.1,17.49,12.1S35,18.79,35,12.11Z"/><path class="cls-2" d="M34.3,11.43c0,5.94-7.52,10.76-16.81,10.76S.68,17.37.68,11.43,8.2.68,17.49.68,34.3,5.49,34.3,11.43Z"/><path class="cls-3" d="M11.91,8s-.18.19-.07.33a2.12,2.12,0,0,0,1.91.35,5.74,5.74,0,0,0,1.74-1.1,7.05,7.05,0,0,1,2-1.27,2.27,2.27,0,0,1,1.44,0,4.42,4.42,0,0,1,1.32.77C21.39,8,26,12,26.82,12.68a40,40,0,0,1,7.39-2.38A9.18,9.18,0,0,0,30.7,4.78a10.82,10.82,0,0,1-9.11.15,8.73,8.73,0,0,0-3.44-.78,6.18,6.18,0,0,0-4.78,2.31Z"/><path class="cls-3" d="M26.63,13.12c-.05,0-5.44-4.76-6.66-5.68a2.92,2.92,0,0,0-1.51-.71,2,2,0,0,0-.72.07,6.55,6.55,0,0,0-2,1.17,5.72,5.72,0,0,1-1.92,1.19,3.11,3.11,0,0,1-2.12-.32,1,1,0,0,1-.35-.39.66.66,0,0,1,.18-.7l1.49-1.61.52-.51a9.19,9.19,0,0,0-1.35.3,6,6,0,0,1-1.58.3A14.94,14.94,0,0,1,9,6,24.29,24.29,0,0,1,4.74,4.43,9.49,9.49,0,0,0,.8,10.13c.31.08.8.23,1,.27,4.78,1.07,6.27,2.16,6.54,2.39a1.58,1.58,0,0,1,1.19-.53,1.56,1.56,0,0,1,1.29.68A1.8,1.8,0,0,1,12,12.53a2.5,2.5,0,0,1,.69.12,1.61,1.61,0,0,1,1,.87,1.61,1.61,0,0,1,.66-.14,2,2,0,0,1,.8.18A1.69,1.69,0,0,1,16,15.45h.19a1.9,1.9,0,0,1,1.89,1.9,2,2,0,0,1-.22.9,3,3,0,0,0,1.64.44,1.06,1.06,0,0,0,.77-.34c0-.07.1-.15,0-.2L19,16.64s-.22-.21-.14-.29.21,0,.31.12c.68.57,1.52,1.43,1.52,1.43s.07.12.38.18a1.4,1.4,0,0,0,1.07-.25,1.75,1.75,0,0,0,.23-.24,0,0,0,0,0,0,0,.73.73,0,0,0,0-.89L20.72,15s-.22-.21-.15-.3.22,0,.32.12c.49.42,1.2,1.13,1.87,1.79a1.29,1.29,0,0,0,1.51,0,1.08,1.08,0,0,0,.56-1,1.14,1.14,0,0,0-.33-.66L22.35,12.7s-.23-.19-.15-.29.22,0,.31.11c.69.58,2.54,2.28,2.54,2.28a1.32,1.32,0,0,0,1.46,0A.94.94,0,0,0,27,14,1.14,1.14,0,0,0,26.63,13.12Z"/><path class="cls-3" d="M16.2,15.86a5.21,5.21,0,0,0-.75.17s0-.15.05-.23.47-1.4-.6-1.86a1.26,1.26,0,0,0-1.49.23s-.06,0-.07,0a1.19,1.19,0,0,0-.83-1.1,1.64,1.64,0,0,0-1.83.65,1.15,1.15,0,1,0-.34,1s0,0,0,0a1.54,1.54,0,0,0,1,1.77,1.15,1.15,0,0,0,1.13-.18c.09-.06.11,0,.09.05a1.1,1.1,0,0,0,.83,1.19,1,1,0,0,0,1.22-.23c.11-.1.14-.08.14.07a1.48,1.48,0,1,0,1.48-1.55Z"/><path class="cls-1" d="M26.84,12.56C25.18,11.11,21.35,7.78,20.31,7A4.61,4.61,0,0,0,19,6.21a2.2,2.2,0,0,0-.67-.1,2.59,2.59,0,0,0-.84.14,6.82,6.82,0,0,0-2,1.26l0,0a5.36,5.36,0,0,1-1.7,1.08,2.59,2.59,0,0,1-.63.07,1.57,1.57,0,0,1-1.17-.38s0-.1.05-.18h0l1.46-1.58a6.08,6.08,0,0,1,4.71-2.28h.12A8.53,8.53,0,0,1,21.55,5,10.2,10.2,0,0,0,26,6.09a11.53,11.53,0,0,0,4.89-1.17l-.59-.47a10.77,10.77,0,0,1-4.29,1,9.5,9.5,0,0,1-4.17-1,9.24,9.24,0,0,0-3.56-.84h-.14A6.18,6.18,0,0,0,14.09,5a7.82,7.82,0,0,0-2,.37,5.76,5.76,0,0,1-1.43.27l-.54,0A26.73,26.73,0,0,1,5,4.23l-.61.46a25.47,25.47,0,0,0,5.56,1.6l.71,0A6.35,6.35,0,0,0,12.25,6a8.77,8.77,0,0,1,1-.25L13,6.07,11.49,7.68a.72.72,0,0,0-.2.81,1,1,0,0,0,.39.44,3,3,0,0,0,1.57.4,3.2,3.2,0,0,0,.63-.07,5.68,5.68,0,0,0,2-1.21A6.57,6.57,0,0,1,17.77,6.9a2,2,0,0,1,.54-.08h.14a2.94,2.94,0,0,1,1.46.7c1.22.91,6.6,5.62,6.66,5.67a1.06,1.06,0,0,1,.32.79.86.86,0,0,1-.43.69,1.29,1.29,0,0,1-.71.22,1.13,1.13,0,0,1-.62-.18S23.26,13,22.58,12.44a.53.53,0,0,0-.32-.17.21.21,0,0,0-.14.07c-.1.13,0,.31.16.43l2.15,2.17a1,1,0,0,1,.3.58,1,1,0,0,1-.51.9,1.46,1.46,0,0,1-.77.25,1,1,0,0,1-.61-.19l-.31-.3c-.56-.56-1.15-1.13-1.58-1.49a.53.53,0,0,0-.32-.17.16.16,0,0,0-.13.06c-.05.06-.09.15,0,.32l.11.12,1.57,1.76a.62.62,0,0,1,0,.76l-.05.07-.15.14a1.26,1.26,0,0,1-.77.24.71.71,0,0,1-.21,0,.5.5,0,0,1-.31-.13l0,0c-.08-.09-.88-.89-1.53-1.44a.6.6,0,0,0-.31-.17.21.21,0,0,0-.14.07c-.13.14.06.35.15.43l1.34,1.48-.05.09c-.05.07-.21.23-.7.29h-.18A3,3,0,0,1,18,18.19a2.07,2.07,0,0,0,.19-.85,2,2,0,0,0-2-2h-.07a1.79,1.79,0,0,0-1-1.88,2.11,2.11,0,0,0-.83-.18,1.62,1.62,0,0,0-.62.11,1.65,1.65,0,0,0-1-.83,2,2,0,0,0-.72-.13,1.86,1.86,0,0,0-1.11.36,1.72,1.72,0,0,0-1.32-.64,1.7,1.7,0,0,0-1.2.5c-.41-.32-2.07-1.38-6.5-2.38-.22,0-.71-.19-1-.28,0,.24-.09.48-.12.73l1,.23C6.21,12,7.71,13,8,13.2a1.79,1.79,0,0,0-.13.65,1.7,1.7,0,0,0,1.7,1.7,1.63,1.63,0,0,0,.31,0A2,2,0,0,0,11.12,17a1.61,1.61,0,0,0,.6.12,1.74,1.74,0,0,0,.39-.05,1.78,1.78,0,0,0,1.05,1,1.83,1.83,0,0,0,.67.14,1.54,1.54,0,0,0,.52-.09,2,2,0,0,0,3.28.63,3.75,3.75,0,0,0,1.69.51l.26,0a1.55,1.55,0,0,0,1.15-.56.75.75,0,0,0,.07-.12,1.79,1.79,0,0,0,.54.09,1.85,1.85,0,0,0,1.1-.39,1.48,1.48,0,0,0,.64-.94v0a1.47,1.47,0,0,0,.36,0A2.08,2.08,0,0,0,24.58,17a1.63,1.63,0,0,0,.81-1.45,2.21,2.21,0,0,0,.37,0,1.91,1.91,0,0,0,1-.33A1.54,1.54,0,0,0,27.54,14a1.56,1.56,0,0,0-.23-1,43.93,43.93,0,0,1,7-2.19c0-.24-.06-.48-.1-.72A39.31,39.31,0,0,0,26.84,12.56ZM16.2,18.71a1.37,1.37,0,0,1-1.37-1.31c0-.06,0-.23-.15-.23a.29.29,0,0,0-.17.09,1,1,0,0,1-.67.3,1.28,1.28,0,0,1-.44-.09c-.78-.32-.79-.85-.76-1.07a.18.18,0,0,0,0-.16l0,0h-.05a.24.24,0,0,0-.13.06,1.12,1.12,0,0,1-.66.23,1,1,0,0,1-.37-.07,1.43,1.43,0,0,1-.9-1.66.16.16,0,0,0,0-.14l-.08-.06-.06.07a1.11,1.11,0,0,1-.74.3,1.07,1.07,0,1,1,1.05-1.2l0,.28.16-.24a1.49,1.49,0,0,1,1.7-.61,1.1,1.1,0,0,1,.76,1c0,.14.11.14.13.14a.17.17,0,0,0,.12-.06,1.06,1.06,0,0,1,.78-.33,1.43,1.43,0,0,1,.59.13c1,.43.55,1.71.55,1.72-.09.21-.09.31,0,.36l0,0h0a.76.76,0,0,0,.19-.05A1.65,1.65,0,0,1,16.2,16h0a1.37,1.37,0,1,1,0,2.74Z"/><path class="cls-1" d="M94.56,4.15a4.07,4.07,0,0,0-5.75,0,4.35,4.35,0,0,0-1,2.8,4.35,4.35,0,0,0,1,2.82,4.12,4.12,0,0,0,5.75,0A4.34,4.34,0,0,0,95.5,7,4.34,4.34,0,0,0,94.56,4.15ZM93,8.69a1.72,1.72,0,0,1-2.63,0A2.84,2.84,0,0,1,89.89,7a2.8,2.8,0,0,1,.47-1.73,1.74,1.74,0,0,1,2.63,0A2.8,2.8,0,0,1,93.45,7,2.84,2.84,0,0,1,93,8.69Z"/><path class="cls-1" d="M78.43,3.49A4.75,4.75,0,0,0,76.23,3a3.22,3.22,0,0,0-2.68,1A2.91,2.91,0,0,0,73,5.61h1.9a1.36,1.36,0,0,1,.28-.69,1.22,1.22,0,0,1,1-.34,2.06,2.06,0,0,1,1,.17.67.67,0,0,1,.32.64A.6.6,0,0,1,77,6a3.31,3.31,0,0,1-.79.17l-.67.08a5,5,0,0,0-1.73.48,2.14,2.14,0,0,0-1.08,2,2.06,2.06,0,0,0,.67,1.64,2.7,2.7,0,0,0,1.69.59c4.29.19,4.24-2.26,4.28-2.77V5.33A1.87,1.87,0,0,0,78.43,3.49Zm-1,4.27a1.57,1.57,0,0,1-.56,1.36,2,2,0,0,1-1.18.37A1.08,1.08,0,0,1,75,9.27a.87.87,0,0,1-.28-.73.88.88,0,0,1,.46-.83,2.68,2.68,0,0,1,.9-.27l.45-.08a2.89,2.89,0,0,0,.52-.14A1.93,1.93,0,0,0,77.43,7Z"/><path class="cls-1" d="M68.66,4.68a1.31,1.31,0,0,1,1.09.45,1.85,1.85,0,0,1,.29.76h2.11A2.85,2.85,0,0,0,71,3.66,4.32,4.32,0,0,0,68.61,3,3.53,3.53,0,0,0,65.87,4.1a4.23,4.23,0,0,0-1,3,4.18,4.18,0,0,0,.9,2.78,3.45,3.45,0,0,0,2.8,1.07,3.35,3.35,0,0,0,2.87-1.29A3.14,3.14,0,0,0,72.13,8H70a1.88,1.88,0,0,1-.37,1,1.3,1.3,0,0,1-1,.37,1.37,1.37,0,0,1-1.39-.94A3.44,3.44,0,0,1,67,7a3.78,3.78,0,0,1,.21-1.38A1.41,1.41,0,0,1,68.66,4.68Z"/><path class="cls-1" d="M64.31,3C60,3,60.23,6.87,60.23,6.87v3.9h2V7.11a3,3,0,0,1,.23-1.33A1.6,1.6,0,0,1,64,5h.23l.33,0V3h-.26Z"/><path class="cls-1" d="M57.08,8.73a1.31,1.31,0,0,1-.27.3,1.67,1.67,0,0,1-1.1.3,1.86,1.86,0,0,1-1.05-.26,1.77,1.77,0,0,1-.79-1.56h5.44A9.93,9.93,0,0,0,59.25,6a3.6,3.6,0,0,0-.6-1.55,3.13,3.13,0,0,0-1.29-1.11A4.32,4.32,0,0,0,55.6,3a3.59,3.59,0,0,0-2.67,1,4,4,0,0,0-1,3A3.62,3.62,0,0,0,53,10a4,4,0,0,0,2.63.93,3.64,3.64,0,0,0,2.82-1.1,2.69,2.69,0,0,0,.68-1.13ZM54.43,5.06a1.58,1.58,0,0,1,1.17-.42,1.71,1.71,0,0,1,1.16.4,1.61,1.61,0,0,1,.52,1.18H53.91A2.08,2.08,0,0,1,54.43,5.06Z"/><path class="cls-1" d="M51.11,10.77h-1.8V6.24A1.27,1.27,0,0,0,48,4.84a1.32,1.32,0,0,0-1.36,1.4v4.53h-1.8V6.24a1.25,1.25,0,0,0-1.31-1.4,1.32,1.32,0,0,0-1.36,1.4v4.53h-1.8V6.28A3.08,3.08,0,0,1,43.51,3a2.78,2.78,0,0,1,2.24,1A2.86,2.86,0,0,1,48,3a3,3,0,0,1,3.13,3.28Z"/><path class="cls-1" d="M87.28.66s-2-.21-2,1.38V4.15A2.35,2.35,0,0,0,83.23,3a2.88,2.88,0,0,0-2.36,1.1A4.83,4.83,0,0,0,80,7.19a4.12,4.12,0,0,0,.89,2.72,3.82,3.82,0,0,0,2.81,1c3.63,0,3.58-3.11,3.58-3.11Zm-2.37,8a1.44,1.44,0,0,1-1.26.62,1.4,1.4,0,0,1-1.24-.62A3.21,3.21,0,0,1,82,7a3,3,0,0,1,.4-1.61,1.36,1.36,0,0,1,1.26-.65,1.47,1.47,0,0,1,1,.36,2.54,2.54,0,0,1,.7,2A2.7,2.7,0,0,1,84.91,8.7Z"/><path class="cls-2" d="M54.73,23.26a.92.92,0,0,1-.3.69.94.94,0,0,1-.69.28h-1V17.39a3.16,3.16,0,0,1,1.18-2.72,3.93,3.93,0,0,1,2.58-.73A3.45,3.45,0,0,1,59.1,15,4.23,4.23,0,0,1,60,17.85a4.58,4.58,0,0,1-.87,2.91,2.71,2.71,0,0,1-2.23,1.09,3,3,0,0,1-1.27-.26,2.11,2.11,0,0,1-.92-.88ZM58,17.94a2.89,2.89,0,0,0-.43-1.72,1.56,1.56,0,0,0-2.46,0,2.91,2.91,0,0,0-.4,1.72,2.55,2.55,0,0,0,.43,1.62,1.44,1.44,0,0,0,1.24.6,1.4,1.4,0,0,0,1.19-.6A2.71,2.71,0,0,0,58,17.94"/><path class="cls-2" d="M73.06,21.22v-.49a2.14,2.14,0,0,1-1.37,1A2.82,2.82,0,0,1,70,21.59a3.21,3.21,0,0,1-1.47-1.27,4.43,4.43,0,0,1-.61-2.44A4.72,4.72,0,0,1,68.7,15a3.14,3.14,0,0,1,2.6-1.1,3.64,3.64,0,0,1,2.53.74A3.19,3.19,0,0,1,75,17.39v4a3.36,3.36,0,0,1-3.7,3.45,3.25,3.25,0,0,1-3.24-2.45h2.08a1.56,1.56,0,0,0,1.63.72,1.55,1.55,0,0,0,.86-.55,2.32,2.32,0,0,0,.43-1.37m-3.24-3.28c0,1.31.38,2,1.14,2.18a1.56,1.56,0,0,0,1.68-.53,2.2,2.2,0,0,0,.37-1,4.24,4.24,0,0,0,0-1.33,2.52,2.52,0,0,0-.47-1.17,1.23,1.23,0,0,0-1.08-.51,1.29,1.29,0,0,0-1.3.71,3.69,3.69,0,0,0-.35,1.63"/><path class="cls-2" d="M66.21,14.46A4.75,4.75,0,0,0,64,14a3.22,3.22,0,0,0-2.68,1,2.91,2.91,0,0,0-.56,1.62h1.9a1.45,1.45,0,0,1,.28-.69,1.24,1.24,0,0,1,1-.35,2,2,0,0,1,1,.18.67.67,0,0,1,.32.64.58.58,0,0,1-.42.55,3.21,3.21,0,0,1-.79.18l-.67.08a4.75,4.75,0,0,0-1.73.48,2.12,2.12,0,0,0-1.07,2,2.09,2.09,0,0,0,.66,1.65,2.64,2.64,0,0,0,1.7.58c4.28.19,4.23-2.25,4.27-2.76V16.3a1.87,1.87,0,0,0-1-1.84m-1,4.27a1.57,1.57,0,0,1-.56,1.36,2.09,2.09,0,0,1-1.18.37,1.08,1.08,0,0,1-.69-.23.86.86,0,0,1-.28-.72.9.9,0,0,1,.46-.84,3,3,0,0,1,.9-.26l.45-.09a2.78,2.78,0,0,0,.52-.13,1.93,1.93,0,0,0,.38-.19Z"/><path class="cls-2" d="M82.44,15.08a4.07,4.07,0,0,0-5.75,0,4.34,4.34,0,0,0-.94,2.8,4.32,4.32,0,0,0,.94,2.81,4.12,4.12,0,0,0,5.75,0,4.32,4.32,0,0,0,1-2.81,4.35,4.35,0,0,0-1-2.8m-1.56,4.53a1.73,1.73,0,0,1-2.64,0,2.78,2.78,0,0,1-.46-1.73,2.78,2.78,0,0,1,.46-1.73,1.73,1.73,0,0,1,2.64,0,2.78,2.78,0,0,1,.46,1.73,2.78,2.78,0,0,1-.46,1.73"/></g></g></svg>
