<?xml version="1.0" encoding="utf-8"?>
<!-- Generator: Adobe Illustrator 22.0.1, SVG Export Plug-In . SVG Version: 6.00 Build 0)  -->
<svg version="1.1" id="Capa_1" xmlns="http://www.w3.org/2000/svg" x="0px" y="0px"
	viewBox="0 0 250 246.8" style="enable-background:new 0 0 250 246.8;" xml:space="preserve">
<style type="text/css">
	.st0{fill:#009CDE;}
	.st1{fill:#003087;}
	.st2{fill:#012169;}
</style>
<title>paypal</title>
<path class="st0" d="M168.7,180.2h-19.4c-1.3,0-2.5,1-2.7,2.3l-7.9,49.9c-0.1,0.9,0.5,1.7,1.4,1.9c0.1,0,0.2,0,0.2,0h10
	c0.9,0,1.7-0.7,1.9-1.6l2.2-14.2c0.2-1.3,1.3-2.3,2.7-2.3h6.1c12.8,0,20.2-6.2,22.1-18.5c0.9-5.4,0-9.6-2.5-12.5
	C180.1,181.9,175.2,180.2,168.7,180.2z M171,198.4c-1.1,7-6.4,7-11.6,7h-2.9l2.1-13c0.1-0.8,0.8-1.4,1.6-1.4h1.3c3.5,0,6.8,0,8.5,2
	C171,194.2,171.3,195.9,171,198.4z"/>
<path class="st1" d="M30,180.2H10.6c-1.3,0-2.4,0.9-2.7,2.2L0,232.3c-0.1,0.9,0.5,1.7,1.4,1.9c0.1,0,0.2,0,0.2,0h9.3
	c1.3,0,2.5-1,2.7-2.3l2.2-13.5c0.2-1.3,1.3-2.3,2.7-2.3h6.2c12.8,0,20.2-6.2,22.1-18.5c0.9-5.4,0-9.6-2.5-12.5
	C41.4,181.9,36.5,180.2,30,180.2z M32.3,198.4c-1.1,7-6.4,7-11.6,7h-2.9l2.1-13c0.1-0.8,0.8-1.4,1.6-1.4h1.3c3.5,0,6.8,0,8.5,2
	C32.3,194.2,32.6,195.9,32.3,198.4z"/>
<path class="st1" d="M88.1,198.2h-9.3c-0.8,0-1.5,0.6-1.6,1.4l-0.4,2.6l-0.6-0.9c-2-2.9-6.5-3.9-11-3.9c-10.3,0-19.1,7.8-20.8,18.7
	c-0.9,5.5,0.4,10.7,3.5,14.3c2.8,3.3,6.9,4.7,11.7,4.7c4.8,0,9.5-1.9,12.9-5.3l-0.4,2.6c-0.1,0.9,0.5,1.7,1.4,1.9c0.1,0,0.2,0,0.2,0
	H82c1.3,0,2.5-1,2.7-2.3l5-31.9c0.1-0.9-0.5-1.7-1.4-1.8C88.3,198.2,88.2,198.2,88.1,198.2z M75.1,216.3c-0.8,5.2-5.3,9-10.5,8.9
	c-4,0.4-7.5-2.5-7.9-6.4c-0.1-0.9,0-1.8,0.2-2.6c0.7-5.2,5.2-9.1,10.4-9c2.3-0.1,4.6,0.8,6.2,2.5C75.1,211.5,75.6,213.9,75.1,216.3
	L75.1,216.3z"/>
<path class="st0" d="M226.8,198.2h-9.3c-0.8,0-1.5,0.6-1.6,1.4l-0.4,2.6l-0.6-0.9c-2-2.9-6.5-3.9-11-3.9c-10.3,0-19.1,7.8-20.8,18.7
	c-0.9,5.5,0.4,10.7,3.5,14.3c2.8,3.3,6.9,4.7,11.7,4.7c4.8,0,9.5-1.9,12.9-5.3l-0.4,2.6c-0.1,0.9,0.5,1.7,1.4,1.9c0.1,0,0.2,0,0.2,0
	h8.4c1.3,0,2.5-1,2.7-2.3l5-31.9c0.1-0.9-0.5-1.7-1.4-1.8C227,198.2,226.9,198.2,226.8,198.2z M213.8,216.3c-0.8,5.2-5.3,9-10.5,8.9
	c-4,0.4-7.5-2.5-7.9-6.4c-0.1-0.9,0-1.8,0.2-2.6c0.7-5.2,5.2-9.1,10.4-9c2.3-0.1,4.6,0.8,6.2,2.5
	C213.8,211.5,214.3,213.9,213.8,216.3L213.8,216.3z"/>
<path class="st1" d="M137.7,198.2h-9.4c-0.9,0-1.7,0.4-2.2,1.2l-12.9,19l-5.5-18.3c-0.3-1.1-1.4-1.9-2.6-1.9H96
	c-0.9,0-1.6,0.7-1.6,1.6c0,0.2,0,0.3,0.1,0.5l10.3,30.3L95,244.2c-0.5,0.7-0.3,1.7,0.4,2.3c0.3,0.2,0.6,0.3,0.9,0.3h9.4
	c0.9,0,1.7-0.4,2.2-1.2l31.1-44.9c0.5-0.7,0.3-1.7-0.4-2.3C138.4,198.3,138.1,198.2,137.7,198.2z"/>
<path class="st0" d="M237.8,181.5l-8,50.8c-0.1,0.9,0.5,1.7,1.4,1.9c0.1,0,0.2,0,0.2,0h8c1.3,0,2.5-1,2.7-2.3l7.9-49.9
	c0.1-0.9-0.5-1.7-1.4-1.9c-0.1,0-0.2,0-0.2,0h-9C238.6,180.2,237.9,180.8,237.8,181.5z"/>
<path class="st0" d="M186.9,41.2c2-12.6,0-21.2-6.8-29C172.5,3.7,159,0,141.6,0H91.2c-3.5,0-6.6,2.6-7.1,6.1l-21,133
	c-0.4,2.4,1.2,4.6,3.6,4.9c0.2,0,0.5,0.1,0.7,0.1h31.1l-2.1,13.6c-0.3,2.1,1.1,4,3.1,4.3c0.2,0,0.4,0,0.6,0h26.2
	c3.1,0,5.7-2.3,6.2-5.3l0.3-1.3l4.9-31.3l0.3-1.7c0.5-3.1,3.1-5.3,6.2-5.3h3.9c25.4,0,45.3-10.3,51.1-40.2
	c2.4-12.5,1.2-22.9-5.3-30.2C192,44.5,189.6,42.6,186.9,41.2L186.9,41.2"/>
<path class="st2" d="M186.9,41.2c2-12.6,0-21.2-6.8-29C172.5,3.7,159,0,141.6,0H91.2c-3.5,0-6.6,2.6-7.1,6.1l-21,133
	c-0.4,2.4,1.2,4.6,3.6,4.9c0.2,0,0.5,0.1,0.7,0.1h31.1l7.8-49.5l-0.2,1.6c0.5-3.5,3.6-6.1,7.1-6.1h14.8c29,0,51.8-11.8,58.4-45.9
	c0.2-1,0.4-2,0.5-3"/>
<path class="st1" d="M114.7,41.4c0.5-3.1,3.1-5.3,6.2-5.3h39.5c4.4,0,8.7,0.3,13,0.9c1.1,0.2,2.3,0.4,3.3,0.6
	c1.1,0.2,2.1,0.5,3.1,0.8c0.5,0.1,1,0.3,1.5,0.5c1.9,0.6,3.7,1.4,5.5,2.3c2-12.6,0-21.2-6.8-29C172.5,3.7,158.9,0,141.6,0H91.2
	c-3.5,0-6.6,2.6-7.1,6.1l-21,133c-0.4,2.4,1.2,4.6,3.6,4.9c0.2,0,0.5,0.1,0.7,0.1h31.1l7.8-49.5L114.7,41.4z"/>
</svg>
