<?xml version="1.0" encoding="utf-8"?>
<!-- Generator: Adobe Illustrator 22.0.1, SVG Export Plug-In . SVG Version: 6.00 Build 0)  -->
<svg version="1.1" id="Capa_1" xmlns="http://www.w3.org/2000/svg" x="0px" y="0px"
	viewBox="0 0 500 278.3" style="enable-background:new 0 0 500 278.3;" xml:space="preserve">
<style type="text/css">
	.st0{fill:#FFA817;}
	.st1{fill:#FF0005;}
	.st2{fill:#FFFFFF;}
</style>
<path id="path0_fill" d="M0,36.4h23.7l19,72.2l18.5-69.1h19.5l18.5,69.1l18.5-72.2h23.7l-31.1,103.8H89.1L70.6,70.1l-18.5,70.1H30.6
	L0,36.4z"/>
<path id="path1_fill" d="M152.3,96.5c1.1,16.3,15.8,25.8,30,25.8c12.1,0,20.6-5.3,24.8-13.7h25.3c-4.7,11.6-12.1,20.6-21.1,26.4
	c-9,5.8-19,9-30,9c-32.2,0-54.8-25.8-54.8-54.8c0-29.5,23.2-55.4,54.3-55.4c15.8,0,29,5.8,39,15.8c12.7,13.2,17.4,29,15.3,47.4
	L152.3,96.5L152.3,96.5z M211.4,77.5c-1.1-9.5-11.6-23.7-29.5-23.2c-18.5,0-28.5,13.2-29,23.2C152.9,77.5,211.4,77.5,211.4,77.5z"/>
<path id="path2_fill" d="M232.5,0h24.8v36.4V49c10-12.7,25.3-15.8,34.8-15.8c24.2,0,51.7,17.9,51.7,54.8c0,35.3-24.2,55.4-52.7,55.4
	c-16.3,0-29-7.9-34.3-17.9v14.8H233L232.5,0L232.5,0z M318.4,88c0-16.9-13.2-31.6-31.1-31.6c-19.5,0-31.1,15.3-31.1,32.2
	c0,17.4,12.1,32.2,31.1,32.2C307.3,120.2,318.4,103.8,318.4,88z"/>
<path id="path3_fill" class="st0" d="M30.6,138.1h23.2v15.3c7.4-10.5,19.5-18.5,36.9-18.5c36.4,0,51.7,31.1,51.7,55.9
	c0,29.5-21.1,54.3-51.7,54.3c-20,0-31.1-10.5-35.3-16.9V242v35.8H30.6C30.6,277.8,30.6,138.1,30.6,138.1z M117.6,189.8
	c0-14.8-10.5-32.2-31.6-32.2c-9,0-16.9,3.7-22.7,9.5c-5.3,5.8-9,13.7-9,22.7c0,9,3.2,16.9,9,22.7c5.8,5.8,13.7,9.5,22.7,9.5
	C104.9,221.9,117.6,207.2,117.6,189.8z"/>
<path id="path4_fill" class="st0" d="M249.3,242h-24.8v-14.8c-6.9,12.1-20.6,17.9-35.3,17.9c-33.2,0-52.7-25.8-52.7-55.4
	c0-32.7,23.7-54.8,52.7-54.8c19,0,30.6,10,35.3,18.5v-15.3h24.8V242z M161.3,190.3c0,12.7,9.5,31.6,31.6,31.6
	c13.7,0,22.7-7.4,27.4-16.3c2.6-4.7,3.7-9.5,3.7-14.8c0-4.7-1.1-10-3.2-14.8c-4.2-9.5-13.7-18.5-29-18.5
	C172.9,157.6,161.3,174.5,161.3,190.3z"/>
<path id="path5_fill" class="st0" d="M279.4,237.7l-39-99.6h26.4l25.3,69.1l24.8-69.1h26.4l-54.8,140.2H262L279.4,237.7z"/>
<path id="path6_fill" class="st1" d="M423.8,72.7c-1.1-1.1-3.2-1.1-4.2,0l-63.8,63.8c-1.1,1.1-2.1,2.1-2.1,2.1s0,1.6,0,3.2v73.3
	c0,1.6,1.6,3.2,3.2,3.2h73.3c1.6,0,3.7-1.1,5.3-2.1l63.8-63.8c1.1-1.1,1.1-3.2,0-4.2L423.8,72.7z"/>
<path id="path7_fill" class="st2" d="M363.7,143.9h5.8v5.8c2.6-3.7,6.9-6.9,12.7-6.9c11.6,0,16.9,9.5,16.9,17.9
	c0,9.5-6.9,17.4-16.9,17.4c-6.9,0-11.1-3.7-12.7-6.9v5.8v12.1h-6.3L363.7,143.9L363.7,143.9z M393.3,160.8c0-5.3-3.7-11.6-11.6-11.6
	c-3.2,0-6.3,1.1-8.4,3.7c-2.1,2.1-3.2,4.7-3.2,8.4c0,3.2,1.1,6.3,3.2,8.4c2.1,2.1,4.7,3.2,8.4,3.2
	C388,172.9,393.3,167.6,393.3,160.8z"/>
<path id="path8_fill" class="st2" d="M408,132.3h-6.3v45.9h6.3V132.3z"/>
<path id="path9_fill" class="st2" d="M442.3,177.6h-5.8v-5.3c-1.6,3.7-5.3,6.3-11.6,6.3c-10.5,0-13.7-7.9-13.7-14.8v-19.5h6.3v18.5
	c0,5.8,2.1,10.5,9,10.5c6.3,0,9-4.2,9-9.5v-19.5h6.3v33.2H442.3z"/>
<path id="path10_fill" class="st2" d="M461.3,152.9c0-2.6-1.6-4.7-4.7-4.7c-3.2,0-4.7,2.1-4.7,4.2c0,2.6,2.6,3.7,5.8,4.7
	c5.3,1.6,10.5,3.2,11.1,10c0,6.9-5.3,11.1-12.1,11.1c-5.3,0-11.6-3.2-12.1-10.5h6.3c0,4.2,3.7,5.3,5.8,5.3c3.2,0,5.3-2.1,5.3-4.7
	c0-3.2-2.6-4.2-8.4-6.3c-4.7-1.6-8.4-3.7-8.4-9c0-6.3,5.3-10,11.1-10c4.7,0,10.5,2.1,11.1,9.5L461.3,152.9L461.3,152.9z"/>
</svg>
