<?xml version="1.0" encoding="UTF-8" standalone="no"?>
<!DOCTYPE svg PUBLIC "-//W3C//DTD SVG 1.1//EN" "http://www.w3.org/Graphics/SVG/1.1/DTD/svg11.dtd">
<svg width="100%" height="100%" viewBox="0 0 50 50" version="1.1" xmlns="http://www.w3.org/2000/svg" xmlns:xlink="http://www.w3.org/1999/xlink" xml:space="preserve" xmlns:serif="http://www.serif.com/" style="fill-rule:evenodd;clip-rule:evenodd;stroke-linejoin:round;stroke-miterlimit:2;">
    <path d="M49.4,46.6L37.2,34.4C40.2,30.8 42,26.1 42,21C42,9.4 32.6,0 21,0C9.4,0 0,9.4 0,21C0,32.6 9.4,42 21,42C26.1,42 30.7,40.2 34.4,37.2L46.6,49.4C47,49.8 47.5,50 48,50C48.5,50 49,49.8 49.4,49.4C50.2,48.6 50.2,47.4 49.4,46.6ZM4,21C4,11.6 11.6,4 21,4C30.4,4 38,11.6 38,21C38,30.4 30.4,38 21,38C11.6,38 4,30.4 4,21Z" style="fill-rule:nonzero;"/>
    <path d="M19.5,29.9C18,29.6 16.5,29 15.3,28C14.1,27.1 13.2,25.8 12.7,24.5C12.4,23.8 12.2,23.1 12.1,22.3C12,21.5 12.1,20.6 11.7,19.9C10.8,18.5 8.6,18.9 8.1,20.5C7.7,21.9 8.2,23.7 8.7,25C9.6,27.9 11.6,30.4 14.2,32C15.9,33 23.1,36 23.1,32C23,29.9 20.9,30.1 19.5,29.9Z" style="fill-rule:nonzero;"/>
</svg>
