<?xml version="1.0" encoding="UTF-8" standalone="no"?>
<!DOCTYPE svg PUBLIC "-//W3C//DTD SVG 1.1//EN" "http://www.w3.org/Graphics/SVG/1.1/DTD/svg11.dtd">
<svg width="100%" height="100%" viewBox="0 0 50 50" version="1.1" xmlns="http://www.w3.org/2000/svg" xmlns:xlink="http://www.w3.org/1999/xlink" xml:space="preserve" xmlns:serif="http://www.serif.com/" style="fill-rule:evenodd;clip-rule:evenodd;stroke-linejoin:round;stroke-miterlimit:2;">
    <g transform="matrix(1,0,0,1,-630,-140)">
        <g id="audiencia" transform="matrix(0.925926,0,0,0.925926,562.384,141.852)">
            <rect x="73" y="-2" width="54" height="54" style="fill:none;"/>
            <g transform="matrix(1.25072,0,0,1.25072,-715.42,-177.335)">
                <path d="M643.326,145.973C638.882,145.973 635.273,149.582 635.273,154.026C635.273,158.471 638.882,162.079 643.326,162.079C647.771,162.079 651.379,158.471 651.379,154.026C651.379,149.582 647.771,145.973 643.326,145.973ZM643.326,149.427C645.865,149.427 647.925,151.488 647.925,154.026C647.925,156.565 645.865,158.625 643.326,158.625C640.788,158.625 638.727,156.565 638.727,154.026C638.727,151.488 640.788,149.427 643.326,149.427Z"/>
            </g>
            <g transform="matrix(1.08,0,0,1.08,-581.331,-149.261)">
                <path d="M643.326,145.7C638.731,145.7 635,149.431 635,154.026C635,158.622 638.731,162.352 643.326,162.352C647.922,162.352 651.652,158.622 651.652,154.026C651.652,149.431 647.922,145.7 643.326,145.7ZM643.326,149.7C645.714,149.7 647.652,151.639 647.652,154.026C647.652,156.414 645.714,158.352 643.326,158.352C640.939,158.352 639,156.414 639,154.026C639,151.639 640.939,149.7 643.326,149.7Z"/>
            </g>
            <g transform="matrix(1.17114,0,0,1.27636,-663.831,-187.465)">
                <path d="M656.821,178.308L656.821,174.242C656.821,172.305 655.917,170.462 654.338,169.177C652.759,167.892 650.656,167.29 648.56,167.521C648.533,167.524 648.506,167.528 648.479,167.532C646.523,167.831 644.467,168.069 642.988,168.069C641.505,168.069 639.444,167.83 637.481,167.546C637.458,167.543 637.436,167.54 637.414,167.537C635.324,167.306 633.226,167.907 631.65,169.189C630.079,170.468 629.177,172.302 629.173,174.229C629.156,175.731 629.156,177.218 629.156,178.308C629.156,178.308 629.156,178.308 629.156,178.308C629.156,180.177 630.807,181.692 632.844,181.692L653.132,181.692C655.169,181.692 656.821,180.177 656.821,178.308ZM632.844,178.308C632.844,177.227 632.844,175.75 632.862,174.26C632.862,174.254 632.862,174.248 632.862,174.242C632.862,173.278 633.312,172.361 634.098,171.722C634.873,171.091 635.902,170.791 636.93,170.893C639.1,171.206 641.36,171.454 642.988,171.454C644.62,171.454 646.885,171.205 649.044,170.877C650.075,170.773 651.111,171.075 651.891,171.71C652.68,172.352 653.132,173.274 653.132,174.242L653.132,178.308L632.844,178.308Z"/>
            </g>
            <g transform="matrix(1.08,0,0,1.08,-607.375,-153.2)">
                <path d="M658.935,167.013C660.175,166.42 661.576,166.201 662.962,166.407C662.995,166.411 663.029,166.417 663.062,166.424C664.637,166.739 666.257,167 667.441,167C668.618,167 670.226,166.741 671.787,166.404C671.83,166.394 671.873,166.387 671.916,166.38C673.93,166.082 675.973,166.675 677.514,168.005C679.055,169.335 679.941,171.269 679.941,173.304L679.941,177C679.941,179.209 678.15,181 675.941,181L661.635,181C661.856,180.374 661.977,179.701 661.977,179L661.977,177L675.941,177L675.941,173.305C675.941,172.432 675.561,171.603 674.901,171.033C674.255,170.476 673.404,170.221 672.565,170.328C670.723,170.722 668.829,171 667.441,171C666.06,171 664.172,170.723 662.328,170.357C661.959,170.308 661.589,170.33 661.235,170.416C660.717,169.146 659.938,167.984 658.935,167.013Z"/>
            </g>
        </g>
    </g>
</svg>
